<?xml version="1.0" encoding="utf-8"?>
<!-- Generator: Adobe Illustrator 16.0.0, SVG Export Plug-In . SVG Version: 6.00 Build 0)  -->
<!DOCTYPE svg PUBLIC "-//W3C//DTD SVG 1.1//EN" "http://www.w3.org/Graphics/SVG/1.1/DTD/svg11.dtd">
<svg version="1.1" id="Layer_1" xmlns="http://www.w3.org/2000/svg" xmlns:xlink="http://www.w3.org/1999/xlink" x="0px" y="0px"
	 width="403.634px" height="89.032px" viewBox="0 0 403.634 89.032" enable-background="new 0 0 403.634 89.032"
	 xml:space="preserve">
<g>
	<polygon fill="#FFFFFF" points="123.969,53.61 96.848,14.73 96.848,53.61 88.678,53.61 88.678,0.97 96.957,0.97 124.816,40.804 
		124.816,0.97 132.987,0.97 132.987,53.61 	"/>
	<path fill="#FFFFFF" d="M164.817,54.914c-7.467,0-13.686-2.589-18.485-7.694c-4.856-5.166-7.216-11.521-7.216-19.432
		c0-7.909,2.409-14.317,7.365-19.592c4.967-5.287,10.88-7.855,18.078-7.855c7.553,0,13.79,2.865,19.02,8.751l-4.9,6.057
		c-3.741-4.294-8.308-6.467-13.603-6.467c-4.75,0-8.875,1.721-12.259,5.114c-3.425,3.434-5.162,8.089-5.162,13.831
		c0,5.716,1.633,10.392,4.853,13.9c3.218,3.509,7.173,5.287,11.755,5.287c5.539,0,10.226-2.171,13.959-6.459l5.012,5.626
		C177.907,51.988,171.868,54.914,164.817,54.914"/>
	<polygon fill="#FFFFFF" points="294.753,53.634 294.753,8.207 280.122,8.207 280.122,0.993 317.557,0.993 317.557,8.207 
		302.924,8.207 302.924,53.634 	"/>
	<polygon fill="#FFFFFF" points="59.667,0.962 37.692,46.075 8.171,46.075 8.171,0.993 0,0.993 0,53.61 34.021,53.61 40.838,53.61 
		43.237,53.61 59.706,19.658 76.098,53.61 85.312,53.61 	"/>
	<polygon fill="#FFFFFF" points="226.131,53.61 209.74,19.658 193.271,53.61 184.054,53.61 209.7,0.963 235.345,53.61 	"/>
	<rect x="322.158" y="0.994" fill="#FFFFFF" width="37.431" height="7.955"/>
	<rect x="322.158" y="23.324" fill="#FFFFFF" width="37.437" height="7.955"/>
	<rect x="322.158" y="45.654" fill="#FFFFFF" width="37.437" height="7.956"/>
	<path fill="#FFFFFF" d="M391.554,35.028c6.521-1.991,11.267-8.052,11.267-15.225v-3.492c0-8.497-6.889-15.386-15.386-15.386
		h-14.926h-8.176v34.799v17.847h8.176V35.725h9.654l11.382,17.888h10.089L391.554,35.028z M372.459,28.376V8.272h13.347
		c4.909,0,8.889,3.979,8.889,8.889v2.019c0,5.079-4.118,9.196-9.198,9.196H372.459z"/>
	<path fill="#FFFFFF" d="M275.822,32.443c-1.588-3.455-4.326-5.919-8.137-7.325c-2.937-1.084-5.993-1.993-8.949-2.874
		c-1.143-0.341-2.286-0.682-3.425-1.031l-0.446-0.139c-1.996-0.609-4.06-1.239-5.822-2.608c-1.816-1.408-2.424-3.353-1.759-5.621
		c0.768-2.611,2.672-4.24,5.665-4.842c1.245-0.25,2.505-0.378,3.745-0.378c3.423,0,6.847,0.965,10.175,2.867
		c0.829,0.474,2.831,1.968,3.699,2.621l4.968-6.237C274.481,5.987,268.992,1.643,261,0.27C259.5,0.012,258.113,0,256.793,0
		c-3.337,0-6.258,0.58-8.93,1.772c-6.092,2.722-9.159,7.066-9.379,13.281c-0.132,3.759,0.915,6.757,3.201,9.167
		c2.048,2.161,4.551,3.682,7.656,4.652c2.134,0.667,13.104,3.334,16.541,5.654c1.418,0.956,2.275,2.41,2.521,3.945
		c0.246,1.535-0.165,3.161-1.155,4.578c-1.258,1.801-3.002,2.941-5.185,3.391c-1.557,0.319-3.105,0.481-4.603,0.481
		c-4.831,0-9.39-1.681-13.549-4.996c-0.444-0.356-1.427-1.26-1.982-1.777l-4.74,5.952l-0.232,0.291
		c0.012,0.016,0.024,0.032,0.038,0.046c4.098,4.258,9.16,6.851,15.047,7.702c2.012,0.291,3.846,0.433,5.608,0.433
		c2.651,0,5.067-0.319,7.384-0.979c6.678-1.898,10.479-5.868,11.622-12.136C277.289,37.986,277.015,35.039,275.822,32.443"/>
	<polygon fill="#FFFFFF" points="95.2,85.812 95.2,88.767 82.262,88.767 82.262,71.195 85.935,71.195 85.935,85.812 	"/>
	<rect x="119.292" y="71.194" fill="#FFFFFF" width="3.674" height="17.572"/>
	<polygon fill="#FFFFFF" points="163.669,88.767 159.463,88.767 153.314,78.436 151.797,75.48 151.771,75.48 151.877,78.595 
		151.877,88.767 148.576,88.767 148.576,71.195 152.755,71.195 158.905,81.497 160.421,84.481 160.475,84.481 160.368,81.367 
		160.368,71.195 163.669,71.195 	"/>
	<path fill="#FFFFFF" d="M201.577,87.741c-1.313,0.861-2.882,1.291-4.711,1.291c-1.722,0-3.221-0.361-4.498-1.093
		c-1.279-0.725-2.259-1.77-2.943-3.129c-0.682-1.354-1.025-2.965-1.025-4.832c0-1.862,0.343-3.472,1.025-4.832
		c0.684-1.354,1.659-2.399,2.928-3.125c1.27-0.73,2.755-1.092,4.46-1.092c1.828,0,3.376,0.381,4.646,1.146
		c1.268,0.765,2.143,1.896,2.621,3.405l-3.327,1.412c-0.283-1.045-0.728-1.799-1.331-2.263c-0.604-0.46-1.419-0.692-2.449-0.692
		c-1.49,0-2.658,0.522-3.502,1.572c-0.842,1.044-1.263,2.54-1.263,4.469c0,1.935,0.407,3.429,1.224,4.474
		c0.815,1.05,1.971,1.572,3.461,1.572c2.147,0,3.498-1.04,4.046-3.115l3.38,1.012C203.805,85.608,202.89,86.881,201.577,87.741"/>
	<path fill="#FFFFFF" d="M240.563,72.021c1.268,0.726,2.244,1.771,2.929,3.125c0.683,1.36,1.025,2.97,1.025,4.832
		c0,1.867-0.343,3.478-1.025,4.832c-0.685,1.359-1.661,2.404-2.929,3.129c-1.27,0.731-2.764,1.093-4.485,1.093
		c-1.723,0-3.222-0.361-4.499-1.093c-1.279-0.725-2.258-1.77-2.942-3.129c-0.683-1.354-1.025-2.965-1.025-4.832
		c0-1.862,0.343-3.472,1.025-4.832c0.685-1.354,1.663-2.399,2.942-3.125c1.277-0.73,2.776-1.092,4.499-1.092
		C237.799,70.93,239.293,71.291,240.563,72.021 M232.628,75.494c-0.808,1.04-1.209,2.535-1.209,4.484
		c0,1.954,0.401,3.449,1.209,4.489s1.959,1.557,3.449,1.557c1.473,0,2.611-0.517,3.419-1.557s1.212-2.535,1.212-4.489
		c0-1.949-0.404-3.444-1.212-4.484c-0.808-1.039-1.946-1.557-3.419-1.557C234.587,73.938,233.436,74.455,232.628,75.494"/>
	<polygon fill="#FFFFFF" points="282.188,85.812 282.188,88.767 269.25,88.767 269.25,71.195 272.923,71.195 272.923,85.812 	"/>
	<polygon fill="#FFFFFF" points="321.373,88.767 317.167,88.767 311.018,78.436 309.501,75.48 309.475,75.48 309.581,78.595 
		309.581,88.767 306.28,88.767 306.28,71.195 310.458,71.195 316.609,81.497 318.125,84.481 318.178,84.481 318.072,81.367 
		318.072,71.195 321.373,71.195 	"/>
</g>
</svg>
